<svg width="123" height="33" viewBox="0 0 123 33" fill="none" xmlns="http://www.w3.org/2000/svg">
<path fill-rule="evenodd" clip-rule="evenodd" d="M0 3.93604H18.6156H18.6166L24.3179 9.27409V15.3296H18.7306C17.6316 11.5964 13.979 8.85397 9.64196 8.85397H5.24784V12.9788C5.24784 17.0369 8.17408 20.4559 12.1585 21.4866V26.7232H5.70133L0 21.3851V3.93604ZM24.3375 26.7133V23.2214C24.3375 21.2978 22.669 19.7356 20.6145 19.7356C18.5601 19.7356 16.8916 21.2978 16.8916 23.2214V23.2276C16.8916 25.1512 18.5601 26.7133 20.6145 26.7133H24.3375Z" fill="url(#paint0_linear_1302_8116)"/>
<path opacity="0.35" d="M5.24784 3.93604H0V8.85397H5.24784V3.93604Z" fill="#F7F7FA"/>
<path fill-rule="evenodd" clip-rule="evenodd" d="M54.5296 6.56079H50.0234V26.8164H54.5296V6.56079ZM91.3286 6.56079H86.8224V26.8164H91.3286V16.7692L92.4123 15.8691H96.2543V26.8164H100.76V14.3727L98.1305 11.9009H92.6921L91.3286 13.1607V6.56079ZM45.5585 7.81572H33.2568V26.8164H45.7013L48.3313 24.3446V19.0453L46.3777 17.2093L48.1893 15.5067V10.2601L45.5585 7.81572ZM37.9051 15.639V11.4635H43.5694V14.8266L42.705 15.639H37.9051ZM60.8773 11.9009H56.3711V24.3446L59.0011 26.8164H64.6689L66.0871 25.4616V26.8164H70.1388V11.9009H65.6326V22.0822L64.7187 22.8482H60.8773V11.9009ZM82.3849 11.9009H74.4162L71.8154 14.3734V18.0808L80.7927 22.6733V23.5691H75.9807V21.9137H71.7301V24.3446L74.3601 26.8164H82.6405L85.2705 24.3446V20.6364L76.2648 16.0438V15.1482H80.7359V16.9638H85.0148V14.3727L82.3849 11.9009ZM107.165 11.9009H102.659V26.8164H107.165V11.9009ZM113.227 11.9009H109.175V32.3167H113.681V26.8164H120.37L123 24.3446V14.3727L120.37 11.9009H114.645L113.227 13.2557V11.9009ZM113.681 16.6352L114.595 15.8691H118.465V22.9283H113.681V16.6352ZM37.9051 23.1686V18.913H42.8452L43.6831 19.7236V23.1686H37.9051Z" fill="#F7F7FA"/>
<path d="M104.802 9.9436C104.802 7.59857 106.863 5.69687 109.406 5.69687C106.863 5.69687 104.802 3.79523 104.802 1.4502C104.802 3.79523 102.74 5.69687 100.197 5.69687C102.74 5.69687 104.802 7.59857 104.802 9.9436Z" fill="#16BAFF"/>
<defs>
<linearGradient id="paint0_linear_1302_8116" x1="-0.946457" y1="3.9513" x2="22.7351" y2="28.2972" gradientUnits="userSpaceOnUse">
<stop stop-color="#07B5FF"/>
<stop offset="0.307604" stop-color="#07B5FF"/>
<stop offset="0.475074" stop-color="#07B5FF"/>
<stop offset="0.728698" stop-color="#6FD4FF"/>
<stop offset="0.801097" stop-color="#40C6FF"/>
<stop offset="1" stop-color="#08B6FF"/>
</linearGradient>
</defs>
</svg>
