<svg width="1364" height="141" viewBox="0 0 1364 141" fill="none" xmlns="http://www.w3.org/2000/svg">
<path fill-rule="evenodd" clip-rule="evenodd" d="M60.8686 140.151C101.515 140.151 117.693 119.69 117.693 95.9876C117.693 74.9191 106.571 59.928 77.8552 54.8635L48.3309 49.5963C40.4443 48.1782 37.8154 46.355 37.8154 42.1008C37.8154 37.0362 41.4554 34.6053 55.8131 34.6053C72.7997 34.6053 76.6419 37.8466 76.6419 45.7473V48.1782H114.053V44.7344C114.053 19.4116 96.0551 0.368896 58.2397 0.368896C18.4021 0.368896 0 19.4116 0 43.5189C0 64.5874 11.3244 79.1733 38.8265 83.4275L68.3508 88.0869C77.653 89.505 79.6752 91.5308 79.6752 97.8109C79.6752 103.686 76.6419 105.914 62.2842 105.914C44.0842 105.914 40.0398 103.686 40.0398 92.5437V90.9231H2.62888V93.5566C2.62888 121.918 22.0421 140.151 60.8686 140.151ZM198.117 138.125V36.6311H239.774V2.39471H118.442V36.6311H160.099V138.125H198.117ZM267.581 111.992L258.886 138.125H219.655L266.773 2.39471H321.979L368.894 138.125H327.237L318.946 111.992H267.581ZM292.252 35.4156L281.13 70.8674L278.501 78.7681H308.228L305.801 70.8674L295.083 35.4156H292.252ZM431.513 138.125V91.936L484.495 2.39471H440.209L423.222 34.4027L414.325 54.6609H411.696L402.596 34.4027L385.609 2.39471H340.514L393.496 92.3411V138.125H431.513ZM648.047 86.2637C648.047 117.866 627.218 140.151 584.347 140.151C540.667 140.151 517.007 112.599 517.007 70.2597C517.007 27.9201 540.667 0.368896 584.347 0.368896C627.218 0.368896 648.047 22.6529 648.047 54.2557V58.9151H607.4V58.3074C607.4 42.7085 602.345 37.4414 583.538 37.4414C564.125 37.4414 557.856 42.1008 557.856 70.2597C557.856 98.4186 564.125 103.078 583.538 103.078C602.345 103.078 607.4 97.8109 607.4 82.212V81.6043H648.047V86.2637ZM717.745 140.151C759.605 140.151 778.816 118.677 778.816 85.6559V2.39471H740.798V83.6301C740.798 98.8238 737.158 103.078 717.745 103.078C698.332 103.078 694.692 98.8238 694.692 83.6301V2.39471H656.674V85.6559C656.674 118.677 675.885 140.151 717.745 140.151ZM830.78 94.7721V138.125H792.763V2.39471H860.911C895.087 2.39471 911.264 16.9806 911.264 44.1266C911.264 65.6003 902.973 78.9707 880.122 81.6043V83.4275C893.873 87.074 899.333 95.785 904.591 107.332L918.747 138.125H874.46L861.113 109.966C855.451 98.216 852.822 94.7721 840.082 94.7721H830.78ZM859.496 36.6311H830.78V63.1693H859.496C870.213 63.1693 873.247 60.1306 873.247 49.3937C873.247 39.4672 870.213 36.6311 859.496 36.6311ZM961.118 2.39471H923.101V138.125H961.118V2.39471ZM1107.11 70.2597C1107.11 112.599 1082.04 140.151 1039.17 140.151C996.093 140.151 971.018 112.599 971.018 70.2597C971.018 27.9201 996.093 0.368896 1039.17 0.368896C1082.04 0.368896 1107.11 27.9201 1107.11 70.2597ZM1011.87 70.2597C1011.87 96.3928 1018.14 103.078 1039.17 103.078C1060 103.078 1066.26 96.3928 1066.26 70.2597C1066.26 44.1266 1060 37.4414 1039.17 37.4414C1018.14 37.4414 1011.87 44.1266 1011.87 70.2597ZM1176.69 140.151C1218.55 140.151 1237.76 118.677 1237.76 85.6559V2.39471H1199.75V83.6301C1199.75 98.8238 1196.11 103.078 1176.69 103.078C1157.28 103.078 1153.64 98.8238 1153.64 83.6301V2.39471H1115.62V85.6559C1115.62 118.677 1134.83 140.151 1176.69 140.151ZM1364 95.9876C1364 119.69 1347.82 140.151 1307.18 140.151C1268.35 140.151 1248.94 121.918 1248.94 93.5566V90.9231H1286.35V92.5437C1286.35 103.686 1290.39 105.914 1308.59 105.914C1322.95 105.914 1325.98 103.686 1325.98 97.8109C1325.98 91.5308 1323.96 89.505 1314.66 88.0869L1285.13 83.4275C1257.63 79.1733 1246.31 64.5874 1246.31 43.5189C1246.31 19.4116 1264.71 0.368896 1304.55 0.368896C1342.36 0.368896 1360.36 19.4116 1360.36 44.7344V48.1782H1322.95V45.7473C1322.95 37.8466 1319.11 34.6053 1302.12 34.6053C1287.76 34.6053 1284.12 37.0362 1284.12 42.1008C1284.12 46.355 1286.75 48.1782 1294.64 49.5963L1324.16 54.8635C1352.88 59.928 1364 74.9191 1364 95.9876ZM1064 70.2597C1050.75 70.2597 1040 80.8423 1040 93.892C1040 80.8423 1029.25 70.2597 1016 70.2597C1029.25 70.2597 1040 59.6774 1040 46.6277C1040 59.6774 1050.75 70.2597 1064 70.2597Z" fill="url(#paint0_linear_501_6353)"/>
<defs>
<linearGradient id="paint0_linear_501_6353" x1="-1.09307e-05" y1="70.0002" x2="1363.95" y2="78.3283" gradientUnits="userSpaceOnUse">
<stop stop-color="#271941"/>
<stop offset="1" stop-color="#301633"/>
</linearGradient>
</defs>
</svg>
