<svg width="26" height="26" viewBox="0 0 26 26" fill="none" xmlns="http://www.w3.org/2000/svg">
<path d="M16.6169 23.1859H5.58984C5.58984 20.6547 7.6469 18.5976 10.1781 18.5976H16.6169C17.1981 18.5976 17.6645 18.1235 17.6645 17.55V11.9218H22.2528V17.55C22.2528 20.6623 19.7293 23.1859 16.6169 23.1859Z" fill="#F7F7FA"/>
<path d="M14.002 13.9711L19.9667 7.4635L25.9237 13.9711H14.002Z" fill="#F7F7FA"/>
<path d="M9.38295 2.81409H20.41C20.41 5.34526 18.353 7.40232 15.8218 7.40232H9.38295C8.80178 7.40232 8.33531 7.87644 8.33531 8.44997V14.0782H3.74707V8.44997C3.74707 5.33762 6.2706 2.81409 9.38295 2.81409Z" fill="#7E7994"/>
<path d="M11.9979 12.0288L6.03323 18.5365L0.0761719 12.0288H11.9979Z" fill="#7E7994"/>
</svg>
