<svg width="26" height="26" viewBox="0 0 26 26" fill="none" xmlns="http://www.w3.org/2000/svg">
<g clip-path="url(#clip0_1337_2812)">
<path d="M1.27269 12.5447L2.5488 11.2686L14.5368 23.2565L12.8659 24.9274C12.2603 25.533 11.2762 25.533 10.6706 24.9274L1.27269 15.5295C0.450778 14.7076 0.450778 13.3666 1.27269 12.5447Z" fill="#7E7994"/>
<path d="M0.992561 10.4742L3.81516 7.65163L6.41607 10.2525C7.41101 11.2475 7.41101 12.8697 6.41607 13.8646L4.82092 15.4598C3.82057 16.4601 2.19839 16.4601 1.19804 15.4598L0.992561 15.2543C-0.326817 13.9349 -0.326817 11.7936 0.992561 10.4742Z" fill="#7E7994"/>
<path d="M10.7056 20.1432L11.6951 19.1536C12.6901 18.1587 14.3123 18.1587 15.3072 19.1536L18.0108 21.8573L14.6313 25.2368C13.6201 26.248 11.9817 26.2426 10.976 25.2368L10.7056 24.9665C9.3754 23.6363 9.3754 21.4734 10.7056 20.1432Z" fill="#7E7994"/>
<path d="M13.772 0H22.9103C24.6156 0 25.9997 1.38412 25.9997 3.08941V12.2276C25.9997 13.9329 24.6156 15.3171 22.9103 15.3171H10.6826V3.08941C10.6826 1.38412 12.0667 0 13.772 0Z" fill="#545163"/>
<path d="M14.2468 0.795288H22.4368C23.9662 0.795288 25.205 2.03411 25.205 3.56352V11.7535C25.205 13.2829 23.9662 14.5218 22.4368 14.5218H11.4785V3.56352C11.4785 2.03411 12.7173 0.795288 14.2468 0.795288Z" fill="#D3D0DD"/>
<path d="M21.6792 2.91357H15.0033C14.5387 2.91357 14.1621 3.29018 14.1621 3.75475V3.86181C14.1621 4.32638 14.5387 4.70299 15.0033 4.70299H21.6792C22.1437 4.70299 22.5203 4.32638 22.5203 3.86181V3.75475C22.5203 3.29018 22.1437 2.91357 21.6792 2.91357Z" fill="#545163"/>
<path d="M21.6792 6.76758H15.0033C14.5387 6.76758 14.1621 7.14419 14.1621 7.60876V7.71581C14.1621 8.18038 14.5387 8.55699 15.0033 8.55699H21.6792C22.1437 8.55699 22.5203 8.18038 22.5203 7.71581V7.60876C22.5203 7.14419 22.1437 6.76758 21.6792 6.76758Z" fill="#545163"/>
<path d="M21.6792 10.6218H15.0033C14.5387 10.6218 14.1621 10.9984 14.1621 11.463V11.5701C14.1621 12.0346 14.5387 12.4112 15.0033 12.4112H21.6792C22.1437 12.4112 22.5203 12.0346 22.5203 11.5701V11.463C22.5203 10.9984 22.1437 10.6218 21.6792 10.6218Z" fill="#545163"/>
</g>
<defs>
<clipPath id="clip0_1337_2812">
<rect width="26" height="26" fill="white"/>
</clipPath>
</defs>
</svg>
