<svg width="26" height="26" viewBox="0 0 26 26" fill="none" xmlns="http://www.w3.org/2000/svg">
<g clip-path="url(#clip0_1337_7170)">
<path d="M10.1628 9.30649C11.1875 8.44237 12.1969 7.61649 13.1987 6.84414C13.3134 6.75237 13.4587 6.72179 13.604 6.74473L19.301 7.78473C19.4005 7.80002 19.4999 7.78473 19.5916 7.75414C19.7293 7.53237 19.8593 7.30296 19.9969 7.0812C20.9757 9.39061 21.9546 11.7 22.9257 14.0094C22.6657 14.1777 22.4134 14.3383 22.1534 14.5065C21.4805 14.5371 20.8075 14.5753 20.1422 14.6059C20.0505 14.6135 19.9052 14.6365 19.7522 14.7206C19.5763 14.8124 19.4616 14.9271 19.4004 15.0035C16.5557 17.9706 14.4834 20.1806 13.344 21.5494C13.0534 21.9012 12.2581 22.8724 11.4399 22.7347C11.0116 22.6659 10.6905 22.3065 10.5834 22.1841C10.1628 21.6794 10.1781 21.1059 10.1857 20.9606C9.65045 21.3047 9.03104 21.3583 8.63339 21.0906C8.54927 21.0371 8.25869 20.7312 8.12104 20.3718C8.07516 20.2494 8.03692 20.1118 8.02927 19.9512C8.02163 19.8518 7.91457 19.7983 7.8228 19.8212C6.9281 20.0812 6.53045 19.9436 6.33163 19.76C6.0181 19.4618 5.55927 19.1865 5.55163 18.3377C5.55163 18.1694 5.39104 18.0318 5.22281 18.0471C4.56516 18.1006 3.9228 17.8024 3.58633 17.2671C3.08163 16.4641 3.52516 15.5771 3.54045 15.5388C5.4981 13.5047 7.70045 11.4094 10.1628 9.32178V9.30649Z" fill="#7E7994"/>
<path d="M1.62891 11.287C3.24244 9.84937 4.84832 8.40408 6.46185 6.96643C7.02008 7.28761 7.86126 7.68525 8.95479 7.92231C10.0713 8.15937 11.0195 8.12878 11.6695 8.05996C13.2066 8.90114 14.8583 9.91055 16.5713 11.1264C17.7948 11.9982 18.9113 12.87 19.913 13.7188C20.7389 14.2005 21.0677 15.0876 20.8001 15.7376C20.5707 16.2882 19.9895 16.487 19.8671 16.5253C20.2418 17.0758 20.2189 17.8023 19.8136 18.2917C19.3624 18.85 18.5213 18.9876 17.8713 18.5823C18.0471 19.2017 17.8483 19.8594 17.3742 20.2647C16.7242 20.8153 15.9136 20.5858 15.8601 20.5705C16.0666 21.1823 15.8218 21.8553 15.2789 22.1841C14.7436 22.5129 14.0401 22.4364 13.5889 21.9929L4.46596 15.3629C4.13714 15.0723 3.80067 14.7282 3.45655 14.3305C2.53891 13.2523 1.98067 12.1511 1.6442 11.287H1.62891Z" fill="#545163"/>
<path d="M9.68123 9.7347C9.58182 9.41352 9.78829 9.09235 9.95653 8.85529C10.4918 8.09058 11.2259 7.38705 11.853 6.86705C12.113 6.64529 12.4342 6.50764 12.7706 6.49235C13.3212 6.46176 13.933 6.46176 14.5906 6.51529C16.4259 6.66058 17.9171 7.14235 18.9801 7.60117C19.3242 7.43293 19.6606 7.25705 20.0048 7.08882C21.0142 9.39058 22.0159 11.6923 23.0253 13.9941C22.2912 14.17 21.2206 14.3 20.1501 13.8565C19.7906 13.7035 19.393 13.3823 18.613 12.7476C17.4659 11.8071 16.2577 10.9353 15.1183 9.98705C14.9959 9.88764 14.7206 9.65823 14.3154 9.58941C13.8871 9.52058 13.5659 9.67352 13.1683 9.82646C12.1054 10.2547 11.3024 10.5759 10.5301 10.3694C10.4153 10.3388 9.81123 10.1782 9.68123 9.74999V9.7347Z" fill="#7E7994"/>
<path d="M25.4035 13.4894C25.2276 15.8983 21.3735 16.1965 21.3659 12.8547L18.59 7.79238C17.3741 7.02768 18.1235 5.28415 19.5765 5.70474L23.9582 4.34356C24.8682 3.49474 26.0765 4.20591 26 5.21533L25.4035 13.4894Z" fill="#F7F7FA"/>
<path d="M-0.000207497 12.6406C-0.137855 15.0418 3.6092 15.8371 4.08332 12.5871L7.56273 7.85357C8.78626 7.22651 8.25862 5.46004 6.79038 5.68181L2.62273 3.76239C1.82744 2.80651 0.542735 3.3571 0.481558 4.35887L-0.000207497 12.6406Z" fill="#F7F7FA"/>
</g>
<defs>
<clipPath id="clip0_1337_7170">
<rect width="26" height="26" fill="white"/>
</clipPath>
</defs>
</svg>
