<svg width="26" height="26" viewBox="0 0 26 26" fill="none" xmlns="http://www.w3.org/2000/svg">
<g clip-path="url(#clip0_1337_3408)">
<path d="M4.67202 0.122375H20.9985C22.0156 0.122375 22.8414 0.948258 22.8414 1.96532V24.57C22.8414 25.3653 22.1991 26.0077 21.4038 26.0077H4.67202C3.87673 26.0077 3.23438 25.3653 3.23438 24.57V1.56002C3.23438 0.764729 3.87673 0.122375 4.67202 0.122375Z" fill="#545163"/>
<path d="M20.4629 24.9065H5.61235C4.91647 24.9065 4.35059 24.3406 4.35059 23.6447V2.48534C4.35059 1.78946 4.91647 1.22357 5.61235 1.22357H14.4447C16.8688 2.93651 19.3006 4.6571 21.7247 6.37004C21.7247 12.1283 21.7247 17.8865 21.7247 23.6447C21.7247 24.3406 21.1588 24.9065 20.4629 24.9065Z" fill="#A9A5B7"/>
<g opacity="0.6">
<path d="M18.1612 8.79413H7.92175C7.71902 8.79413 7.55469 8.95847 7.55469 9.16119V11.5241C7.55469 11.7268 7.71902 11.8912 7.92175 11.8912H18.1612C18.3639 11.8912 18.5282 11.7268 18.5282 11.5241V9.16119C18.5282 8.95847 18.3639 8.79413 18.1612 8.79413Z" fill="#F7F7FA"/>
<path d="M18.1612 13.4971H7.92175C7.71902 13.4971 7.55469 13.6614 7.55469 13.8641V16.2271C7.55469 16.4298 7.71902 16.5941 7.92175 16.5941H18.1612C18.3639 16.5941 18.5282 16.4298 18.5282 16.2271V13.8641C18.5282 13.6614 18.3639 13.4971 18.1612 13.4971Z" fill="#F7F7FA"/>
<path d="M18.1612 18.2077H7.92175C7.71902 18.2077 7.55469 18.372 7.55469 18.5748V20.9377C7.55469 21.1404 7.71902 21.3048 7.92175 21.3048H18.1612C18.3639 21.3048 18.5282 21.1404 18.5282 20.9377V18.5748C18.5282 18.372 18.3639 18.2077 18.1612 18.2077Z" fill="#F7F7FA"/>
</g>
<path d="M12.1461 23.8735L11.8682 23.6338L10.3148 25.4346L10.5927 25.6744L12.1461 23.8735Z" fill="#7E7994"/>
<path d="M23.6749 12.2277L21.6484 10.4765L23.3996 8.45001C23.3996 8.45001 24.3555 9.2759 24.3784 9.29119C24.4014 9.30648 25.4108 10.1859 25.4337 10.2012C24.8526 10.8741 24.2637 11.5547 23.6826 12.2277H23.6749Z" fill="#7E7994"/>
<path d="M15.5006 22.6277L12.5488 20.0812L20.7159 10.6294C21.5265 9.68886 22.8265 9.47474 23.6065 10.1477C24.4553 10.8818 24.4324 12.2965 23.5529 13.3136L15.5082 22.6353L15.5006 22.6277Z" fill="#F7F7FA"/>
<path d="M12.8849 19.6912L15.8366 22.2377C13.7184 24.4935 11.6154 25.4112 11.0113 24.8988C10.4302 24.4018 10.9654 22.3371 12.5484 20.0735C12.6631 19.9435 12.7702 19.8135 12.8849 19.6835V19.6912Z" fill="#F7F7FA"/>
<path d="M16.2589 20.9847L14.0643 19.0917C13.6933 18.7717 13.1332 18.813 12.8132 19.184L12.6983 19.3172C12.3783 19.6881 12.4197 20.2483 12.7906 20.5682L14.9852 22.4612C15.3562 22.7812 15.9163 22.7399 16.2363 22.3689L16.3512 22.2357C16.6712 21.8648 16.6299 21.3046 16.2589 20.9847Z" fill="#7E7994"/>
<path d="M14.4521 1.21588V6.36235H21.7321C19.308 4.64941 16.8763 2.92882 14.4521 1.21588Z" fill="#F7F7FA"/>
</g>
<defs>
<clipPath id="clip0_1337_3408">
<rect width="26" height="26" fill="white"/>
</clipPath>
</defs>
</svg>
