<svg width="26" height="26" viewBox="0 0 26 26" fill="none" xmlns="http://www.w3.org/2000/svg">
<g clip-path="url(#clip0_1337_10253)">
<path d="M5.0216 0.356817L0.382149 4.99627C-0.0867098 5.46513 -0.0867118 6.2253 0.382147 6.69416L19.3293 25.6413C19.7981 26.1102 20.5583 26.1101 21.0272 25.6413L25.6666 21.0018C26.1355 20.533 26.1355 19.7728 25.6666 19.304L6.71949 0.356817C6.25063 -0.112042 5.49046 -0.112042 5.0216 0.356817Z" fill="#7E7994"/>
<path d="M1.01855 7.32141L5.07943 3.26054C5.30113 3.03884 5.65801 3.03884 5.87971 3.26054C6.10141 3.48224 6.1014 3.83912 5.8797 4.06082L1.81883 8.12169L1.02396 7.32682L1.01855 7.32141Z" fill="#A7A2B8"/>
<path d="M2.67383 8.97437L4.7286 6.9196C4.93407 6.71412 5.26392 6.71953 5.46399 6.9196L5.52347 6.97908C5.72895 7.18455 5.72354 7.5144 5.52347 7.71447L3.4687 9.76924L2.67383 8.97437Z" fill="#A7A2B8"/>
<path d="M4.32129 10.6249L8.38216 6.56407C8.60386 6.34237 8.96074 6.34237 9.18244 6.56407C9.40414 6.78577 9.40414 7.14265 9.18244 7.36435L5.12157 11.4252L4.3267 10.6303L4.32129 10.6249Z" fill="#A7A2B8"/>
<path d="M5.9873 12.2779L8.04208 10.2231C8.24755 10.0176 8.57739 10.0231 8.77746 10.2231L8.83695 10.2826C9.04242 10.4881 9.03702 10.8179 8.83695 11.018L6.78218 13.0728L5.9873 12.2779Z" fill="#A7A2B8"/>
<path d="M7.63574 13.9362L11.6966 9.87528C11.9183 9.65359 12.2752 9.65359 12.4969 9.87529C12.7186 10.097 12.7186 10.4539 12.4969 10.6756L8.43602 14.7364L7.64115 13.9416L7.63574 13.9362Z" fill="#A7A2B8"/>
<path d="M9.29004 15.5891L11.3448 13.5343C11.5503 13.3288 11.8801 13.3342 12.0802 13.5343L12.1397 13.5938C12.3452 13.7992 12.3397 14.1291 12.1397 14.3291L10.0849 16.3839L9.29004 15.5891Z" fill="#A7A2B8"/>
<path d="M10.9385 17.2397L14.9993 13.1788C15.221 12.9571 15.5779 12.9571 15.7996 13.1788C16.0213 13.4005 16.0213 13.7574 15.7996 13.9791L11.7388 18.04L10.9439 17.2451L10.9385 17.2397Z" fill="#A7A2B8"/>
<path d="M12.5986 18.8872L14.6534 16.8324C14.8589 16.627 15.1887 16.6324 15.3888 16.8324L15.4483 16.8919C15.6537 17.0974 15.6483 17.4272 15.4483 17.6273L13.3935 19.6821L12.5986 18.8872Z" fill="#A7A2B8"/>
<path d="M14.2529 20.551L18.3138 16.4901C18.5355 16.2684 18.8924 16.2684 19.1141 16.4901C19.3358 16.7118 19.3358 17.0687 19.1141 17.2904L15.0532 21.3512L14.2583 20.5564L14.2529 20.551Z" fill="#A7A2B8"/>
<path d="M15.8994 22.2038L17.9542 20.149C18.1597 19.9436 18.4895 19.949 18.6896 20.149L18.7491 20.2085C18.9545 20.414 18.9491 20.7438 18.7491 20.9439L16.6943 22.9987L15.8994 22.2038Z" fill="#A7A2B8"/>
<path d="M17.5557 23.8544L21.6165 19.7935C21.8382 19.5718 22.1951 19.5718 22.4168 19.7935C22.6385 20.0152 22.6385 20.3721 22.4168 20.5938L18.3559 24.6546L17.5611 23.8598L17.5557 23.8544Z" fill="#A7A2B8"/>
<path d="M4.87779 23.2828L4.45508 22.9182L2.11255 25.6339L2.53526 25.9985L4.87779 23.2828Z" fill="#7E7994"/>
<path d="M22.2842 5.70471L19.2178 3.05882L21.856 0C21.856 0 23.3013 1.24647 23.3319 1.26941C23.3625 1.29235 24.8919 2.61529 24.9225 2.63824C24.0431 3.65529 23.1637 4.68 22.2842 5.69706V5.70471Z" fill="#7E7994"/>
<path d="M9.94944 21.4041L5.49121 17.5577L17.8183 3.2806C19.0418 1.85825 20.9994 1.53707 22.1847 2.55413C23.4618 3.65531 23.4236 5.79648 22.1006 7.32589L9.94944 21.3965V21.4041Z" fill="#F7F7FA"/>
<path d="M5.99612 16.9688L10.4544 20.8153C7.25789 24.2182 4.08436 25.61 3.17436 24.8376C2.29495 24.0882 3.10553 20.9682 5.49142 17.5576C5.65965 17.3588 5.82789 17.1676 5.99612 16.9688Z" fill="#F7F7FA"/>
<path d="M11.0854 18.9191L7.78476 16.0721C7.22191 15.5866 6.37205 15.6493 5.88655 16.2122L5.72173 16.4033C5.23623 16.9661 5.29894 17.816 5.86179 18.3015L9.16239 21.1485C9.72524 21.634 10.5751 21.5713 11.0606 21.0084L11.2254 20.8173C11.7109 20.2545 11.6482 19.4046 11.0854 18.9191Z" fill="#7E7994"/>
</g>
<defs>
<clipPath id="clip0_1337_10253">
<rect width="26" height="26" fill="white"/>
</clipPath>
</defs>
</svg>
