<svg width="26" height="26" viewBox="0 0 26 26" fill="none" xmlns="http://www.w3.org/2000/svg">
<g clip-path="url(#clip0_1337_7677)">
<path d="M15.5391 16.5864H10.4385V24.3405H15.5391V16.5864Z" fill="#545163"/>
<path d="M24.2257 1.65936H1.75866C0.783061 1.65936 -0.0078125 2.45024 -0.0078125 3.42583V19.2705C-0.0078125 20.2461 0.783061 21.037 1.75866 21.037H24.2257C25.2013 21.037 25.9922 20.2461 25.9922 19.2705V3.42583C25.9922 2.45024 25.2013 1.65936 24.2257 1.65936Z" fill="#7E7994"/>
<path d="M19.5461 24.3176H6.41606C6.41606 23.4459 7.12724 22.7347 7.999 22.7347H17.9708C18.8425 22.7347 19.5537 23.4459 19.5537 24.3176H19.5461Z" fill="#7E7994"/>
<path d="M23.4228 2.56934H2.56161C1.66625 2.56934 0.94043 3.29516 0.94043 4.19051V18.4905C0.94043 19.3859 1.66625 20.1117 2.56161 20.1117H23.4228C24.3181 20.1117 25.044 19.3859 25.044 18.4905V4.19051C25.044 3.29516 24.3181 2.56934 23.4228 2.56934Z" fill="#F7F7FA"/>
<path d="M5.29199 12.067V10.1093L9.35258 8.11346H9.79611V10.0558L7.37964 11.0882L9.79611 12.1205V14.0629H9.35258L5.29199 12.067Z" fill="#545163"/>
<path d="M11.043 15.9135L13.1765 6.76758H15.1112L12.9777 15.9135H11.043Z" fill="#545163"/>
<path d="M20.7004 12.067L16.6398 14.0629H16.1963V12.1205L18.6128 11.0882L16.1963 10.0558V8.11346H16.6398L20.7004 10.1093V12.067Z" fill="#545163"/>
</g>
<defs>
<clipPath id="clip0_1337_7677">
<rect width="26" height="26" fill="white"/>
</clipPath>
</defs>
</svg>
