<svg width="26" height="26" viewBox="0 0 26 26" fill="none" xmlns="http://www.w3.org/2000/svg">
<g clip-path="url(#clip0_1337_7457)">
<path d="M17.2213 11.5776C15.906 10.9582 14.499 10.5147 13.0231 10.2623C12.8396 10.5912 12.6331 11.027 12.4878 11.3788C10.9202 11.1417 9.37546 11.1417 7.8384 11.3788C7.69311 11.027 7.47899 10.5912 7.29546 10.2623C5.81958 10.5147 4.41252 10.9659 3.09722 11.5853C0.443694 15.6 -0.275129 19.5076 0.0842832 23.3617C1.84311 24.677 3.5484 25.4723 5.23075 26C5.64369 25.4264 6.01075 24.8223 6.33193 24.1876C5.72781 23.9582 5.14663 23.6753 4.59605 23.3464C4.74134 23.2394 4.88664 23.1247 5.02428 23.01C8.36605 24.5776 12.006 24.5776 15.3096 23.01C15.4472 23.1247 15.5925 23.2394 15.7378 23.3464C15.1872 23.6753 14.606 23.9659 14.0019 24.1953C14.3231 24.83 14.6902 25.4417 15.1031 26.0076C16.7855 25.4876 18.4908 24.6847 20.2496 23.3694C20.6702 18.8959 19.5308 15.0264 17.229 11.5853L17.2213 11.5776ZM6.79075 20.9912C5.78899 20.9912 4.96311 20.0506 4.96311 18.9112C4.96311 17.7717 5.76605 16.8312 6.79075 16.8312C7.81546 16.8312 8.6337 17.7717 8.6184 18.9112C8.6184 20.0506 7.81546 20.9912 6.79075 20.9912ZM13.5431 20.9912C12.5413 20.9912 11.7155 20.0506 11.7155 18.9112C11.7155 17.7717 12.5184 16.8312 13.5431 16.8312C14.5678 16.8312 15.386 17.7717 15.3708 18.9112C15.3708 20.0506 14.5678 20.9912 13.5431 20.9912Z" fill="#D6DAE3"/>
<path d="M21.2897 3.23474H18.835V11.6312H21.2897V3.23474Z" fill="#F7F7FA"/>
<path d="M14.1314 5.93022L15.8672 7.66595L21.8044 1.72875L20.0687 -0.0069856L14.1314 5.93022Z" fill="#F7F7FA"/>
<path d="M24.2672 7.67208L26.0029 5.93634L20.0657 -0.000860991L18.33 1.73488L24.2672 7.67208Z" fill="#F7F7FA"/>
<path d="M10.1934 5.20001H9.02344V9.19178H10.1934V5.20001Z" fill="#7E7994"/>
<path d="M6.78694 6.47933L7.61426 7.30664L10.4369 4.48404L9.60955 3.65672L6.78694 6.47933Z" fill="#7E7994"/>
<path d="M11.5994 7.31102L12.4268 6.4837L9.60415 3.6611L8.77684 4.48841L11.5994 7.31102Z" fill="#7E7994"/>
<path d="M23.7678 13.887H22.6055V17.8635H23.7678V13.887Z" fill="#7E7994"/>
<path d="M20.3832 15.1657L21.2051 15.9876L24.0169 13.1758L23.195 12.3539L20.3832 15.1657Z" fill="#7E7994"/>
<path d="M25.1771 15.986L25.999 15.1641L23.1872 12.3523L22.3653 13.1742L25.1771 15.986Z" fill="#7E7994"/>
</g>
<defs>
<clipPath id="clip0_1337_7457">
<rect width="26" height="26" fill="white"/>
</clipPath>
</defs>
</svg>
