<svg width="26" height="26" viewBox="0 0 26 26" fill="none" xmlns="http://www.w3.org/2000/svg">
<g clip-path="url(#clip0_1337_4532)">
<path opacity="0.25" d="M13.2827 21.5112C18.9547 21.5112 23.5527 16.9132 23.5527 11.2412C23.5527 5.56923 18.9547 0.971191 13.2827 0.971191C7.61073 0.971191 3.0127 5.56923 3.0127 11.2412C3.0127 16.9132 7.61073 21.5112 13.2827 21.5112Z" stroke="#545163" stroke-width="2" stroke-miterlimit="10"/>
<path d="M13.2824 17.6876C16.8427 17.6876 19.7289 14.8014 19.7289 11.2411C19.7289 7.68086 16.8427 4.79468 13.2824 4.79468C9.72212 4.79468 6.83594 7.68086 6.83594 11.2411C6.83594 14.8014 9.72212 17.6876 13.2824 17.6876Z" stroke="#545163" stroke-width="2" stroke-miterlimit="10"/>
<path d="M13.2983 11.9983C12.8242 12.3424 12.3578 12.6942 11.8836 13.0383C10.8207 16.6248 9.75775 20.2189 8.69481 23.8053C7.75422 24.5089 6.81364 25.2048 5.87305 25.9083C10.813 25.9389 15.753 25.9695 20.693 26.0001C19.8366 25.2659 18.9801 24.5395 18.116 23.8053C16.9842 20.2418 15.8525 16.6783 14.7283 13.1224C14.2542 12.7477 13.7725 12.373 13.2983 11.9983Z" fill="#7E7994"/>
<path d="M13.2979 14.7512C14.8183 14.7512 16.0508 13.5187 16.0508 11.9983C16.0508 10.4779 14.8183 9.24536 13.2979 9.24536C11.7775 9.24536 10.5449 10.4779 10.5449 11.9983C10.5449 13.5187 11.7775 14.7512 13.2979 14.7512Z" fill="#ABB1C0"/>
<path d="M10.8664 20.8612C12.6252 21.3277 14.3917 21.7941 16.1505 22.2606C14.1241 22.8494 12.0976 23.4383 10.0635 24.0347C10.3311 22.9794 10.5988 21.9241 10.8588 20.8689L10.8664 20.8612Z" fill="#545163"/>
<path d="M16.6625 23.0483C14.9954 23.7901 13.336 24.5395 11.6689 25.2812C13.7642 25.5336 15.8595 25.7859 17.9625 26.0383C17.5266 25.0365 17.0984 24.0424 16.6625 23.0406V23.0483Z" fill="#545163"/>
<path d="M12.2501 15.2712C13.1142 15.753 13.9783 16.2271 14.8424 16.7088C13.7566 17.0759 12.6707 17.443 11.5771 17.81C11.7989 16.9612 12.0207 16.1124 12.2501 15.2635V15.2712Z" fill="#545163"/>
<path d="M15.1791 17.8483C13.8638 18.3606 12.5485 18.8806 11.2256 19.393C12.8621 19.8671 14.4909 20.3489 16.1274 20.823C15.8138 19.8289 15.4926 18.8424 15.1791 17.8483Z" fill="#545163"/>
<path d="M20.6545 23.8053H6.55334C5.97052 23.8053 5.49805 24.2778 5.49805 24.8606V24.9141C5.49805 25.4969 5.97052 25.9694 6.55334 25.9694H20.6545C21.2373 25.9694 21.7098 25.4969 21.7098 24.9141V24.8606C21.7098 24.2778 21.2373 23.8053 20.6545 23.8053Z" fill="#7E7994"/>
<path d="M12.7631 11.8529C13.101 11.8529 13.3749 11.579 13.3749 11.2412C13.3749 10.9033 13.101 10.6294 12.7631 10.6294C12.4253 10.6294 12.1514 10.9033 12.1514 11.2412C12.1514 11.579 12.4253 11.8529 12.7631 11.8529Z" fill="#E6E6E6"/>
<path d="M15.8065 12.87C17.3894 13.5812 18.9724 14.2924 20.5553 14.9959C20.4406 14.0706 20.3182 13.1453 20.2035 12.2277C21.9929 13.2906 23.7824 14.3535 25.5718 15.4088L22.3906 14.82C22.2988 15.5618 22.2071 16.3035 22.1153 17.0453C20.0124 15.6535 17.9018 14.2618 15.7988 12.8624L15.8065 12.87Z" fill="#7E7994"/>
<path d="M15.7 9.78821C17.0689 8.65644 18.4377 7.52468 19.8065 6.39291C20.273 7.11938 20.7471 7.83821 21.2136 8.56468C22.8041 6.53056 24.4024 4.49644 25.993 2.46997C24.5094 3.44879 23.0259 4.43527 21.5424 5.41409C21.2212 4.55762 20.9077 3.70115 20.5865 2.85232C18.9577 5.16938 17.3212 7.48644 15.6924 9.8035L15.7 9.78821Z" fill="#7E7994"/>
<path d="M10.2168 12.8623C8.62619 13.5735 7.04325 14.2847 5.45266 14.9959C5.56737 14.0706 5.68972 13.1453 5.80443 12.22C4.00737 13.2829 2.21031 14.3459 0.420898 15.4088L3.60972 14.82C3.70149 15.5617 3.79325 16.3035 3.88502 17.0529C5.99561 15.6535 8.11384 14.2617 10.2244 12.8623H10.2168Z" fill="#7E7994"/>
<path d="M10.3008 9.78821C8.93193 8.65644 7.56311 7.52468 6.19428 6.39291C5.72781 7.11938 5.25369 7.83821 4.78722 8.56468C3.19664 6.53056 1.5984 4.49644 0.0078125 2.46997C1.49134 3.44879 2.97487 4.43527 4.4584 5.41409C4.77958 4.55762 5.09311 3.70115 5.41429 2.85232C7.04311 5.16938 8.67958 7.48644 10.3084 9.8035L10.3008 9.78821Z" fill="#7E7994"/>
</g>
<defs>
<clipPath id="clip0_1337_4532">
<rect width="26" height="26" fill="white"/>
</clipPath>
</defs>
</svg>
