<svg width="26" height="26" viewBox="0 0 26 26" fill="none" xmlns="http://www.w3.org/2000/svg">
<g clip-path="url(#clip0_1337_7182)">
<path d="M13.6804 23.0253C19.5213 23.0253 24.2563 18.2903 24.2563 12.4494C24.2563 6.60852 19.5213 1.87354 13.6804 1.87354C7.83947 1.87354 3.10449 6.60852 3.10449 12.4494C3.10449 18.2903 7.83947 23.0253 13.6804 23.0253Z" fill="#545163"/>
<path d="M6.62515 15.4254C5.93968 14.6673 4.76943 14.6084 4.01133 15.2939C3.25323 15.9793 3.19436 17.1496 3.87983 17.9077L9.25479 23.8521C9.94026 24.6102 11.1105 24.6691 11.8686 23.9836C12.6267 23.2981 12.6856 22.1279 12.0001 21.3698L6.62515 15.4254Z" fill="#7E7994"/>
<path d="M22.9997 7.0881L21.6177 7.45532C20.536 7.74272 19.8922 8.85256 20.1796 9.93422L20.5291 11.2498C20.8165 12.3314 21.9264 12.9753 23.008 12.6879L24.3901 12.3207C25.4717 12.0333 26.1156 10.9234 25.8282 9.84176L25.4786 8.52623C25.1912 7.44457 24.0814 6.8007 22.9997 7.0881Z" fill="#BDB9CB"/>
<path d="M22.8726 17.7873C19.2326 17.4279 15.585 17.0685 11.945 16.7091C11.2185 16.6403 10.6144 16.1203 10.4232 15.4168L9.33734 11.3256C9.15381 10.6221 9.42146 9.87264 10.0179 9.45206C13.0003 7.33382 15.9826 5.20794 18.9726 3.0897C19.9668 2.38617 21.3585 2.88323 21.672 4.06853L24.7385 15.6003C25.052 16.7779 24.0885 17.9097 22.8803 17.7873H22.8726Z" fill="#BDB9CB"/>
<path d="M8.98197 10.01L3.05469 11.585L4.84365 18.3178L10.7709 16.7429L8.98197 10.01Z" fill="#BDB9CB"/>
<path d="M21.6393 2.45393C21.4647 1.79677 20.7904 1.40559 20.1332 1.5802C19.4761 1.75481 19.0849 2.42909 19.2595 3.08625L23.1261 17.6384C23.3007 18.2955 23.975 18.6867 24.6322 18.5121C25.2893 18.3375 25.6805 17.6632 25.5059 17.0061L21.6393 2.45393Z" fill="#F7F7FA"/>
<path d="M8.53447 8.21761L7.19676 8.57305C6.41715 8.78019 5.95308 9.58012 6.16023 10.3597L8.14752 17.839C8.35467 18.6186 9.15459 19.0827 9.9342 18.8756L11.2719 18.5201C12.0515 18.313 12.5156 17.5131 12.3084 16.7335L10.3211 9.25415C10.114 8.47454 9.31408 8.01047 8.53447 8.21761Z" fill="#F7F7FA"/>
<path d="M3.02394 10.7325L3.03133 10.7305C3.19393 10.6873 3.35491 10.7869 3.39615 10.9421L5.46003 18.7097C5.50323 18.8723 5.40359 19.0333 5.24838 19.0745C3.14206 19.6342 0.981203 18.3806 0.42154 16.2742L0.229094 15.5499C-0.328605 13.451 0.925008 11.2902 3.02394 10.7325Z" fill="#F7F7FA"/>
<path d="M10.9113 11.4896L2.95898 13.6025L3.75822 16.6105L11.7105 14.4975L10.9113 11.4896Z" fill="#F7F7FA"/>
</g>
<defs>
<clipPath id="clip0_1337_7182">
<rect width="26" height="26" fill="white"/>
</clipPath>
</defs>
</svg>
