<svg width="26" height="26" viewBox="0 0 26 26" fill="none" xmlns="http://www.w3.org/2000/svg">
<g clip-path="url(#clip0_1337_9862)">
<path d="M8.71 22.6506C13.5204 22.6506 17.42 18.751 17.42 13.9406C17.42 9.13019 13.5204 5.23059 8.71 5.23059C3.8996 5.23059 0 9.13019 0 13.9406C0 18.751 3.8996 22.6506 8.71 22.6506Z" fill="#7E7994"/>
<path d="M8.70981 15.3171C10.4836 15.3171 11.9216 13.8791 11.9216 12.1053C11.9216 10.3315 10.4836 8.89355 8.70981 8.89355C6.936 8.89355 5.49805 10.3315 5.49805 12.1053C5.49805 13.8791 6.936 15.3171 8.70981 15.3171Z" fill="#F7F7FA"/>
<path d="M8.70953 20.1959C10.5142 20.1959 12.1278 19.3624 13.1983 18.07C12.0054 17.0071 10.4378 16.3571 8.70953 16.3571C6.98129 16.3571 5.41364 17.0071 4.2207 18.07C5.28364 19.37 6.89717 20.1959 8.70953 20.1959Z" fill="#F7F7FA"/>
<path d="M21.7103 8.33534C23.9445 8.33534 25.7556 6.5242 25.7556 4.29005C25.7556 2.05589 23.9445 0.244751 21.7103 0.244751C19.4762 0.244751 17.665 2.05589 17.665 4.29005C17.665 6.5242 19.4762 8.33534 21.7103 8.33534Z" fill="#7E7994"/>
<path d="M21.7108 4.96304C22.4879 4.96304 23.1178 4.33308 23.1178 3.55598C23.1178 2.77889 22.4879 2.14893 21.7108 2.14893C20.9337 2.14893 20.3037 2.77889 20.3037 3.55598C20.3037 4.33308 20.9337 4.96304 21.7108 4.96304Z" fill="#F7F7FA"/>
<path d="M21.7104 7.11192C22.5057 7.11192 23.2092 6.74486 23.6757 6.17898C23.1557 5.71251 22.4675 5.42957 21.7104 5.42957C20.9534 5.42957 20.2651 5.71251 19.7451 6.17898C20.2116 6.74486 20.9228 7.11192 21.7104 7.11192Z" fill="#F7F7FA"/>
<path d="M21.7099 25.8012C24.0792 25.8012 25.9999 23.8805 25.9999 21.5112C25.9999 19.1419 24.0792 17.2212 21.7099 17.2212C19.3406 17.2212 17.4199 19.1419 17.4199 21.5112C17.4199 23.8805 19.3406 25.8012 21.7099 25.8012Z" fill="#7E7994"/>
<path d="M21.7098 22.0465C22.4869 22.0465 23.1169 21.4166 23.1169 20.6395C23.1169 19.8624 22.4869 19.2324 21.7098 19.2324C20.9327 19.2324 20.3027 19.8624 20.3027 20.6395C20.3027 21.4166 20.9327 22.0465 21.7098 22.0465Z" fill="#F7F7FA"/>
<path d="M21.7094 24.1877C22.5047 24.1877 23.2083 23.8207 23.6747 23.2548C23.1547 22.7883 22.4665 22.5054 21.7094 22.5054C20.9524 22.5054 20.2641 22.7883 19.7441 23.2548C20.2106 23.8207 20.9218 24.1877 21.7094 24.1877Z" fill="#F7F7FA"/>
<path d="M8.71 6.76C12.6712 6.76 15.8906 9.97941 15.8906 13.9406C15.8906 17.9018 12.6712 21.1212 8.71 21.1212C4.74882 21.1212 1.52941 17.9018 1.52941 13.9406C1.52941 9.97941 4.74882 6.76 8.71 6.76ZM8.71 5.23059C3.9 5.23059 0 9.13059 0 13.9406C0 18.7506 3.9 22.6506 8.71 22.6506C13.52 22.6506 17.42 18.7506 17.42 13.9406C17.42 9.13059 13.52 5.23059 8.71 5.23059Z" fill="#545163"/>
<path d="M21.7099 1.05529C23.4917 1.05529 24.9446 2.50824 24.9446 4.29C24.9446 6.07177 23.4917 7.52471 21.7099 7.52471C19.9282 7.52471 18.4752 6.07177 18.4752 4.29C18.4752 2.50824 19.9282 1.05529 21.7099 1.05529ZM21.7099 0C19.3393 0 17.4199 1.91941 17.4199 4.29C17.4199 6.66059 19.3393 8.58 21.7099 8.58C24.0805 8.58 25.9999 6.66059 25.9999 4.29C25.9999 1.91941 24.0805 0 21.7099 0Z" fill="#545163"/>
<path d="M21.7099 18.2765C23.4917 18.2765 24.9446 19.7294 24.9446 21.5112C24.9446 23.293 23.4917 24.7459 21.7099 24.7459C19.9282 24.7459 18.4752 23.293 18.4752 21.5112C18.4752 19.7294 19.9282 18.2765 21.7099 18.2765ZM21.7099 17.2212C19.3393 17.2212 17.4199 19.1406 17.4199 21.5112C17.4199 23.8818 19.3393 25.8012 21.7099 25.8012C24.0805 25.8012 25.9999 23.8818 25.9999 21.5112C25.9999 19.1406 24.0805 17.2212 21.7099 17.2212Z" fill="#545163"/>
<path d="M14.9268 8.8936L18.5668 6.10242" stroke="#545163" stroke-width="2" stroke-miterlimit="10"/>
<path d="M15.8291 17.772C16.6932 18.3837 17.5573 19.0031 18.4215 19.6149" stroke="#545163" stroke-width="2" stroke-miterlimit="10"/>
</g>
<defs>
<clipPath id="clip0_1337_9862">
<rect width="26" height="26" fill="white"/>
</clipPath>
</defs>
</svg>
