<svg width="26" height="26" viewBox="0 0 26 26" fill="none" xmlns="http://www.w3.org/2000/svg">
<path d="M20.3793 3.06653H5.6205C4.43374 3.06653 3.47168 4.02859 3.47168 5.21535V23.8512C3.47168 25.038 4.43374 26.0001 5.6205 26.0001H20.3793C21.5661 26.0001 22.5281 25.038 22.5281 23.8512V5.21535C22.5281 4.02859 21.5661 3.06653 20.3793 3.06653Z" fill="#7E7994"/>
<path d="M19.8973 3.75476H6.102C4.99126 3.75476 4.09082 4.6552 4.09082 5.76594V23.293C4.09082 24.4037 4.99126 25.3042 6.102 25.3042H19.8973C21.008 25.3042 21.9085 24.4037 21.9085 23.293V5.76594C21.9085 4.6552 21.008 3.75476 19.8973 3.75476Z" fill="#D3D0DD"/>
<path d="M15.0646 0H10.9352C10.6752 0 10.4688 0.206471 10.4688 0.466471V3.61706C10.4688 3.87706 10.6752 4.08353 10.9352 4.08353H15.0646C15.3246 4.08353 15.5311 3.87706 15.5311 3.61706V0.466471C15.5311 0.206471 15.3246 0 15.0646 0ZM13.9482 2.69941C13.9482 2.76059 13.9023 2.80647 13.8411 2.80647H12.1664C12.1052 2.80647 12.0593 2.76059 12.0593 2.69941V1.3153C12.0593 1.25412 12.1052 1.20824 12.1664 1.20824H13.8411C13.9023 1.20824 13.9482 1.25412 13.9482 1.3153V2.69941Z" fill="#545163"/>
<path d="M17.0457 2.04175H8.96271C8.68397 2.04175 8.45801 2.26772 8.45801 2.54646V4.19057C8.45801 4.46931 8.68397 4.69528 8.96271 4.69528H17.0457C17.3244 4.69528 17.5504 4.46931 17.5504 4.19057V2.54646C17.5504 2.26772 17.3244 2.04175 17.0457 2.04175Z" fill="#545163"/>
<path fill-rule="evenodd" clip-rule="evenodd" d="M11.1346 6.40093C11.3667 6.61647 11.3802 6.97936 11.1646 7.21147L8.4805 10.1021C8.37632 10.2143 8.23161 10.2801 8.07858 10.285C7.92556 10.2899 7.77692 10.2335 7.66578 10.1282C7.64373 10.1073 7.6217 10.0864 7.59968 10.0655C7.18684 9.67445 6.77839 9.28751 6.36976 8.89348C6.14175 8.67361 6.13515 8.31053 6.35501 8.08252C6.57488 7.85451 6.93796 7.84791 7.16597 8.06777C7.45426 8.34576 7.74264 8.62036 8.03419 8.89696L10.3241 6.43095C10.5396 6.19884 10.9025 6.1854 11.1346 6.40093Z" fill="#545163"/>
<path fill-rule="evenodd" clip-rule="evenodd" d="M15.6152 18.9568C15.8392 18.7328 16.2024 18.7328 16.4263 18.9568L19.4699 22.0003C19.6938 22.2243 19.6938 22.5874 19.4699 22.8114C19.2459 23.0354 18.8828 23.0354 18.6588 22.8114L15.6152 19.7679C15.3913 19.5439 15.3913 19.1808 15.6152 18.9568Z" fill="#545163"/>
<path fill-rule="evenodd" clip-rule="evenodd" d="M19.4699 18.9568C19.6938 19.1808 19.6938 19.5439 19.4699 19.7679L16.4263 22.8114C16.2024 23.0354 15.8392 23.0354 15.6152 22.8114C15.3913 22.5874 15.3913 22.2243 15.6152 22.0003L18.6588 18.9568C18.8828 18.7328 19.2459 18.7328 19.4699 18.9568Z" fill="#545163"/>
<g opacity="0.25">
<path fill-rule="evenodd" clip-rule="evenodd" d="M8.28934 19.5611C7.5587 19.5611 6.96639 20.1534 6.96639 20.8841C6.96639 21.6147 7.5587 22.207 8.28934 22.207C9.01998 22.207 9.61228 21.6147 9.61228 20.8841C9.61228 20.1534 9.01998 19.5611 8.28934 19.5611ZM5.81934 20.8841C5.81934 19.5199 6.92519 18.4141 8.28934 18.4141C9.65348 18.4141 10.7593 19.5199 10.7593 20.8841C10.7593 22.2482 9.65348 23.3541 8.28934 23.3541C6.92519 23.3541 5.81934 22.2482 5.81934 20.8841Z" fill="#545163"/>
<path fill-rule="evenodd" clip-rule="evenodd" d="M15.3623 12.3497C15.5863 12.1258 15.9494 12.1258 16.1734 12.3497L17.4122 13.5886L17.0067 13.9941L17.4122 13.5886C17.8654 14.0417 18.1155 14.6547 18.1155 15.2941V16.4718C18.1155 16.7885 17.8587 17.0453 17.542 17.0453C17.2252 17.0453 16.9685 16.7885 16.9685 16.4718V15.2941C16.9685 14.9547 16.8362 14.6347 16.6011 14.3997L15.3623 13.1608C15.1383 12.9369 15.1383 12.5737 15.3623 12.3497Z" fill="#545163"/>
<path fill-rule="evenodd" clip-rule="evenodd" d="M14.3189 6.61737C14.5412 6.84297 14.5386 7.2061 14.313 7.42844L14.3123 7.42904C13.9105 7.82508 13.5076 8.22213 13.1043 8.61613C13.2268 8.76513 13.3498 8.91413 13.4733 9.06365L13.4739 9.06444C13.7086 9.34876 13.9449 9.63496 14.1794 9.92335C14.3793 10.1691 14.3421 10.5303 14.0964 10.7302C13.8507 10.93 13.4894 10.8929 13.2896 10.6471C13.0579 10.3622 12.824 10.079 12.5887 9.79388L12.588 9.79306C12.3533 9.50875 12.117 9.22256 11.8825 8.93418C11.6949 8.70358 11.7147 8.3679 11.9279 8.16083C12.4538 7.6502 12.9799 7.1317 13.5078 6.61144C13.7334 6.38911 14.0965 6.39176 14.3189 6.61737Z" fill="#545163"/>
</g>
<path fill-rule="evenodd" clip-rule="evenodd" d="M12.9997 7.83826H15.61C17.4463 7.83826 18.4005 10.0266 17.1511 11.3721L9.59642 19.5079L8.75586 18.7274L16.3105 10.5916C16.8784 9.98001 16.4447 8.98532 15.61 8.98532H12.9997V7.83826Z" fill="#B3B0BE"/>
</svg>
