<svg width="26" height="26" viewBox="0 0 26 26" fill="none" xmlns="http://www.w3.org/2000/svg">
<path d="M6.24649 3.58643H19.7512C22.2059 3.58643 24.2018 5.58231 24.2018 8.03701V20.8458C24.2018 22.2911 23.0241 23.4688 21.5788 23.4688H4.30414C2.92002 23.4688 1.7959 22.3447 1.7959 20.9605V8.03701C1.7959 5.58231 3.79178 3.58643 6.24649 3.58643Z" fill="#545163"/>
<path d="M24.4164 8.05996H1.24578C0.649313 8.05996 0.244018 7.45584 0.465783 6.90525L1.79637 3.58643H24.2023C24.6075 4.58819 25.0052 5.58996 25.4105 6.58407C25.6934 7.2876 25.1734 8.05231 24.4164 8.05231V8.05996Z" fill="#7E7994"/>
<path d="M18.0079 12.0135C17.6408 12.1741 17.2432 12.2888 16.8302 12.3347C17.2508 12.0823 17.5796 11.677 17.7326 11.1952C17.3349 11.4323 16.8991 11.6005 16.4249 11.6923C16.0502 11.2947 15.5149 11.0423 14.9261 11.0423C13.7944 11.0423 12.8691 11.9599 12.8691 13.0994C12.8691 13.2599 12.8844 13.4205 12.9226 13.5658C11.2173 13.4817 9.69553 12.6635 8.68612 11.417C8.51023 11.7229 8.41082 12.0747 8.41082 12.4494C8.41082 13.1605 8.77023 13.7952 9.32847 14.1623C8.992 14.1547 8.67082 14.0629 8.39553 13.9023C8.39553 13.9099 8.39553 13.9176 8.39553 13.9252C8.39553 14.9194 9.1067 15.7529 10.0473 15.9441C9.87141 15.9899 9.69553 16.0129 9.50435 16.0129C9.37435 16.0129 9.24435 15.9976 9.11435 15.9747C9.37435 16.7929 10.1314 17.3894 11.0338 17.4047C10.3302 17.9552 9.44318 18.2841 8.47965 18.2841C8.31141 18.2841 8.15082 18.2764 7.99023 18.2535C8.90023 18.8347 9.97847 19.1788 11.1408 19.1788C14.9185 19.1788 16.9908 16.0435 16.9908 13.3288C16.9908 13.237 16.9908 13.1529 16.9908 13.0611C17.3961 12.7705 17.7402 12.4111 18.0155 11.9982L18.0079 12.0135Z" fill="#F7F7FA"/>
</svg>
